<mxfile host="app.diagrams.net" modified="2022-06-29T11:55:53.317Z" agent="5.0 (Macintosh; Intel Mac OS X 10_15_7) AppleWebKit/537.36 (KHTML, like Gecko) Chrome/103.0.0.0 Safari/537.36" etag="lqXONEcF7g_6TxACfifY" version="20.0.1" type="github">
  <diagram id="Gt-tQABe089DooeGn4d-" name="Page-1">
    <mxGraphModel dx="2866" dy="1561" grid="1" gridSize="10" guides="1" tooltips="1" connect="1" arrows="1" fold="1" page="0" pageScale="1" pageWidth="1169" pageHeight="827" math="0" shadow="0">
      <root>
        <mxCell id="0" />
        <mxCell id="1" parent="0" />
        <mxCell id="HpDSSK4cueKhpCX4-wFQ-1" value="Pool" style="swimlane;html=1;childLayout=stackLayout;resizeParent=1;resizeParentMax=0;horizontal=1;startSize=20;horizontalStack=0;" vertex="1" parent="1">
          <mxGeometry x="-420" y="-30" width="1860" height="620" as="geometry" />
        </mxCell>
        <mxCell id="HpDSSK4cueKhpCX4-wFQ-2" value="User" style="swimlane;html=1;startSize=30;horizontal=0;" vertex="1" parent="HpDSSK4cueKhpCX4-wFQ-1">
          <mxGeometry y="20" width="1860" height="120" as="geometry" />
        </mxCell>
        <mxCell id="HpDSSK4cueKhpCX4-wFQ-7" style="edgeStyle=orthogonalEdgeStyle;rounded=0;orthogonalLoop=1;jettySize=auto;html=1;exitX=1;exitY=0.5;exitDx=0;exitDy=0;exitPerimeter=0;entryX=0;entryY=0.5;entryDx=0;entryDy=0;entryPerimeter=0;" edge="1" parent="HpDSSK4cueKhpCX4-wFQ-2" source="HpDSSK4cueKhpCX4-wFQ-5" target="HpDSSK4cueKhpCX4-wFQ-6">
          <mxGeometry relative="1" as="geometry" />
        </mxCell>
        <mxCell id="HpDSSK4cueKhpCX4-wFQ-5" value="" style="points=[[0.145,0.145,0],[0.5,0,0],[0.855,0.145,0],[1,0.5,0],[0.855,0.855,0],[0.5,1,0],[0.145,0.855,0],[0,0.5,0]];shape=mxgraph.bpmn.event;html=1;verticalLabelPosition=bottom;labelBackgroundColor=#ffffff;verticalAlign=top;align=center;perimeter=ellipsePerimeter;outlineConnect=0;aspect=fixed;outline=standard;symbol=general;" vertex="1" parent="HpDSSK4cueKhpCX4-wFQ-2">
          <mxGeometry x="40" y="35" width="50" height="50" as="geometry" />
        </mxCell>
        <mxCell id="HpDSSK4cueKhpCX4-wFQ-6" value="Request Instance" style="points=[[0.25,0,0],[0.5,0,0],[0.75,0,0],[1,0.25,0],[1,0.5,0],[1,0.75,0],[0.75,1,0],[0.5,1,0],[0.25,1,0],[0,0.75,0],[0,0.5,0],[0,0.25,0]];shape=mxgraph.bpmn.task;whiteSpace=wrap;rectStyle=rounded;size=10;taskMarker=user;" vertex="1" parent="HpDSSK4cueKhpCX4-wFQ-2">
          <mxGeometry x="150" y="20" width="120" height="80" as="geometry" />
        </mxCell>
        <mxCell id="HpDSSK4cueKhpCX4-wFQ-3" value="Frontend" style="swimlane;html=1;startSize=30;horizontal=0;" vertex="1" parent="HpDSSK4cueKhpCX4-wFQ-1">
          <mxGeometry y="140" width="1860" height="120" as="geometry" />
        </mxCell>
        <mxCell id="HpDSSK4cueKhpCX4-wFQ-18" style="edgeStyle=orthogonalEdgeStyle;rounded=0;orthogonalLoop=1;jettySize=auto;html=1;exitX=1;exitY=0.5;exitDx=0;exitDy=0;exitPerimeter=0;entryX=0;entryY=0.5;entryDx=0;entryDy=0;entryPerimeter=0;" edge="1" parent="HpDSSK4cueKhpCX4-wFQ-3" source="HpDSSK4cueKhpCX4-wFQ-8" target="HpDSSK4cueKhpCX4-wFQ-16">
          <mxGeometry relative="1" as="geometry" />
        </mxCell>
        <mxCell id="HpDSSK4cueKhpCX4-wFQ-8" value="Create Spec" style="points=[[0.25,0,0],[0.5,0,0],[0.75,0,0],[1,0.25,0],[1,0.5,0],[1,0.75,0],[0.75,1,0],[0.5,1,0],[0.25,1,0],[0,0.75,0],[0,0.5,0],[0,0.25,0]];shape=mxgraph.bpmn.task;whiteSpace=wrap;rectStyle=rounded;size=10;taskMarker=script;" vertex="1" parent="HpDSSK4cueKhpCX4-wFQ-3">
          <mxGeometry x="230" y="20" width="120" height="80" as="geometry" />
        </mxCell>
        <mxCell id="HpDSSK4cueKhpCX4-wFQ-16" value="Specification" style="shape=mxgraph.bpmn.data;labelPosition=center;verticalLabelPosition=bottom;align=center;verticalAlign=top;whiteSpace=wrap;size=15;html=1;" vertex="1" parent="HpDSSK4cueKhpCX4-wFQ-3">
          <mxGeometry x="420" y="30" width="40" height="60" as="geometry" />
        </mxCell>
        <mxCell id="HpDSSK4cueKhpCX4-wFQ-4" value="GitOps" style="swimlane;html=1;startSize=30;horizontal=0;" vertex="1" parent="HpDSSK4cueKhpCX4-wFQ-1">
          <mxGeometry y="260" width="1860" height="120" as="geometry" />
        </mxCell>
        <mxCell id="HpDSSK4cueKhpCX4-wFQ-19" style="edgeStyle=orthogonalEdgeStyle;rounded=0;orthogonalLoop=1;jettySize=auto;html=1;exitX=1;exitY=0.5;exitDx=0;exitDy=0;exitPerimeter=0;entryX=0;entryY=0.5;entryDx=0;entryDy=0;entryPerimeter=0;" edge="1" parent="HpDSSK4cueKhpCX4-wFQ-4" source="HpDSSK4cueKhpCX4-wFQ-11" target="HpDSSK4cueKhpCX4-wFQ-15">
          <mxGeometry relative="1" as="geometry" />
        </mxCell>
        <mxCell id="HpDSSK4cueKhpCX4-wFQ-11" value="Pull Request" style="points=[[0.145,0.145,0],[0.5,0,0],[0.855,0.145,0],[1,0.5,0],[0.855,0.855,0],[0.5,1,0],[0.145,0.855,0],[0,0.5,0]];shape=mxgraph.bpmn.event;html=1;verticalLabelPosition=bottom;labelBackgroundColor=#ffffff;verticalAlign=top;align=center;perimeter=ellipsePerimeter;outlineConnect=0;aspect=fixed;outline=standard;symbol=message;" vertex="1" parent="HpDSSK4cueKhpCX4-wFQ-4">
          <mxGeometry x="390" y="35" width="50" height="50" as="geometry" />
        </mxCell>
        <mxCell id="HpDSSK4cueKhpCX4-wFQ-21" style="edgeStyle=orthogonalEdgeStyle;rounded=0;orthogonalLoop=1;jettySize=auto;html=1;exitX=1;exitY=0.5;exitDx=0;exitDy=0;exitPerimeter=0;" edge="1" parent="HpDSSK4cueKhpCX4-wFQ-4" source="HpDSSK4cueKhpCX4-wFQ-15" target="HpDSSK4cueKhpCX4-wFQ-20">
          <mxGeometry relative="1" as="geometry" />
        </mxCell>
        <mxCell id="HpDSSK4cueKhpCX4-wFQ-15" value="Merge PR" style="points=[[0.25,0,0],[0.5,0,0],[0.75,0,0],[1,0.25,0],[1,0.5,0],[1,0.75,0],[0.75,1,0],[0.5,1,0],[0.25,1,0],[0,0.75,0],[0,0.5,0],[0,0.25,0]];shape=mxgraph.bpmn.task;whiteSpace=wrap;rectStyle=rounded;size=10;taskMarker=user;" vertex="1" parent="HpDSSK4cueKhpCX4-wFQ-4">
          <mxGeometry x="500" y="20" width="120" height="80" as="geometry" />
        </mxCell>
        <mxCell id="HpDSSK4cueKhpCX4-wFQ-20" value="Create Argo App" style="points=[[0.25,0,0],[0.5,0,0],[0.75,0,0],[1,0.25,0],[1,0.5,0],[1,0.75,0],[0.75,1,0],[0.5,1,0],[0.25,1,0],[0,0.75,0],[0,0.5,0],[0,0.25,0]];shape=mxgraph.bpmn.task;whiteSpace=wrap;rectStyle=rounded;size=10;taskMarker=abstract;" vertex="1" parent="HpDSSK4cueKhpCX4-wFQ-4">
          <mxGeometry x="680" y="20" width="120" height="80" as="geometry" />
        </mxCell>
        <mxCell id="HpDSSK4cueKhpCX4-wFQ-24" value="Management&#xa;Cluster" style="swimlane;startSize=30;horizontal=0;" vertex="1" parent="HpDSSK4cueKhpCX4-wFQ-1">
          <mxGeometry y="380" width="1860" height="120" as="geometry" />
        </mxCell>
        <mxCell id="HpDSSK4cueKhpCX4-wFQ-23" value="Workload&#xa;Cluster" style="swimlane;startSize=30;horizontal=0;" vertex="1" parent="HpDSSK4cueKhpCX4-wFQ-1">
          <mxGeometry y="500" width="1860" height="120" as="geometry" />
        </mxCell>
        <mxCell id="HpDSSK4cueKhpCX4-wFQ-10" style="edgeStyle=orthogonalEdgeStyle;rounded=0;orthogonalLoop=1;jettySize=auto;html=1;exitX=0.5;exitY=1;exitDx=0;exitDy=0;exitPerimeter=0;entryX=0;entryY=0.5;entryDx=0;entryDy=0;entryPerimeter=0;" edge="1" parent="HpDSSK4cueKhpCX4-wFQ-1" source="HpDSSK4cueKhpCX4-wFQ-6" target="HpDSSK4cueKhpCX4-wFQ-8">
          <mxGeometry relative="1" as="geometry" />
        </mxCell>
        <mxCell id="HpDSSK4cueKhpCX4-wFQ-12" value="" style="endArrow=blockThin;html=1;labelPosition=left;verticalLabelPosition=middle;align=right;verticalAlign=middle;dashed=1;dashPattern=8 4;endFill=0;startArrow=oval;startFill=0;endSize=6;startSize=4;rounded=0;exitX=0.5;exitY=1;exitDx=0;exitDy=0;exitPerimeter=0;entryX=0;entryY=0.5;entryDx=0;entryDy=0;entryPerimeter=0;" edge="1" parent="HpDSSK4cueKhpCX4-wFQ-1" source="HpDSSK4cueKhpCX4-wFQ-8" target="HpDSSK4cueKhpCX4-wFQ-11">
          <mxGeometry relative="1" as="geometry">
            <mxPoint x="800" y="530" as="sourcePoint" />
            <mxPoint x="960" y="530" as="targetPoint" />
            <Array as="points">
              <mxPoint x="290" y="320" />
            </Array>
          </mxGeometry>
        </mxCell>
        <mxCell id="HpDSSK4cueKhpCX4-wFQ-13" value="" style="shape=message;html=1;outlineConnect=0;labelPosition=left;verticalLabelPosition=middle;align=right;verticalAlign=middle;spacingRight=5;labelBackgroundColor=#ffffff;" vertex="1" parent="HpDSSK4cueKhpCX4-wFQ-12">
          <mxGeometry width="24" height="16" relative="1" as="geometry">
            <mxPoint x="8" y="-8" as="offset" />
          </mxGeometry>
        </mxCell>
        <mxCell id="HpDSSK4cueKhpCX4-wFQ-17" style="edgeStyle=orthogonalEdgeStyle;rounded=0;orthogonalLoop=1;jettySize=auto;html=1;exitX=0;exitY=0;exitDx=40;exitDy=37.5;exitPerimeter=0;" edge="1" parent="HpDSSK4cueKhpCX4-wFQ-1" source="HpDSSK4cueKhpCX4-wFQ-16" target="HpDSSK4cueKhpCX4-wFQ-15">
          <mxGeometry relative="1" as="geometry" />
        </mxCell>
      </root>
    </mxGraphModel>
  </diagram>
</mxfile>
